<svg id="Layer_1" data-name="Layer 1" xmlns="http://www.w3.org/2000/svg" viewBox="0 0 400.9 261.45"><defs><style>.cls-1{fill:#fff;}.cls-2{fill:#0499f2;}</style></defs><g id="Layer_2" data-name="Layer 2"><g id="Layer_1-2" data-name="Layer 1-2"><path class="cls-1" d="M31.85,194v9.09H10.35v10H30.79v9.09H10.35v18.18H0V194Z"/><path class="cls-1" d="M53.88,194H64.23v46.38H53.88Z"/><path class="cls-1" d="M108.55,202.92v37.42H98.2V202.92H85.06v-9h36.63v9Z"/><path class="cls-1" d="M178,200q6.65,6.08,6.64,16.89T178.12,234q-6.47,6.3-19.74,6.3H142.52V194h16.39Q171.32,194,178,200Zm-7.59,27.57q3.81-3.58,3.81-10.41t-3.81-10.52Q166.54,203,158.65,203h-5.78v28.2h6.57c4.74,0,8.37-1.2,10.92-3.6Z"/><rect class="cls-1" x="206.82" y="193.96" width="10.35" height="46.38"/><path class="cls-1" d="M265.87,194h-10l-20,46.38h11l4.31-10h19.44l4.31,10h11Zm-10.81,27.27,5.83-13.47,5.78,13.47Z"/><path class="cls-1" d="M342.18,209.36q0,11.14-8.83,14.4l11.74,16.58H332.36l-10.29-14.79H314.9v14.79H304.55V194h17.59q10.82,0,15.42,3.65T342.18,209.36Zm-12.48,5.5c1.28-1.15,1.93-3,1.93-5.47s-.67-4.21-2-5.14-3.64-1.4-7-1.4H314.9v13.74h7.57q5.31,0,7.23-1.73Z"/><path class="cls-1" d="M384.84,240.34H374.49V222l-16.06-28h11.22l10,17.25,10-17.25H400.9l-16.06,28Z"/><path class="cls-1" d="M56.88,252.17a4.29,4.29,0,0,1,1.31,3.33,4.51,4.51,0,0,1-1.28,3.38A5.39,5.39,0,0,1,53,260.12H49.89V251h3.23A5.38,5.38,0,0,1,56.88,252.17Zm-1.5,5.44a2.69,2.69,0,0,0,.75-2.05,2.76,2.76,0,0,0-.75-2.08,3.23,3.23,0,0,0-2.31-.72H51.93v5.56h1.3A3,3,0,0,0,55.38,257.61Z"/><path class="cls-1" d="M71.79,251v1.81H67.23v1.89h4.1v1.74h-4.1v1.9h4.7v1.8H65.19V251Z"/><path class="cls-1" d="M83.18,258.32a3,3,0,0,0,2.46-1.19L87,258.47a4.92,4.92,0,0,1-6.93.61l-.22-.19a4.83,4.83,0,0,1,0-6.76,4.68,4.68,0,0,1,3.41-1.36A4.81,4.81,0,0,1,87,252.48l-1.27,1.44a3,3,0,0,0-2.4-1.2,2.83,2.83,0,0,0-2,.75,2.61,2.61,0,0,0-.82,2,2.83,2.83,0,0,0,.77,2A2.56,2.56,0,0,0,83.18,258.32Z"/><path class="cls-1" d="M93.8,251h2v9.14h-2Z"/><path class="cls-1" d="M110.31,252.17a4.29,4.29,0,0,1,1.31,3.33,4.51,4.51,0,0,1-1.28,3.38,5.34,5.34,0,0,1-3.89,1.24h-3.13V251h3.24A5.36,5.36,0,0,1,110.31,252.17Zm-1.5,5.44a2.68,2.68,0,0,0,.76-2.05,2.77,2.77,0,0,0-.76-2.08,3.23,3.23,0,0,0-2.31-.72h-1.14v5.56h1.3A3,3,0,0,0,108.81,257.61Z"/><path class="cls-1" d="M125.22,251v1.81h-4.56v1.89h4.1v1.74h-4.1v1.9h4.7v1.8h-6.74V251Z"/><path class="cls-1" d="M132.48,260a1,1,0,0,1-.46-.85,1.15,1.15,0,0,1,.35-.86,1.19,1.19,0,0,1,.86-.33,1.22,1.22,0,0,1,.85.32,1,1,0,0,1,.36.77,2.09,2.09,0,0,1-.38,1.05l-.78,1.35H132Z"/><path class="cls-1" d="M154.42,258.32a3,3,0,0,0,2.46-1.19l1.31,1.34a4.92,4.92,0,0,1-6.93.61l-.22-.19a4.83,4.83,0,0,1,0-6.76,4.68,4.68,0,0,1,3.41-1.36,4.87,4.87,0,0,1,3.77,1.71L157,253.92a3,3,0,0,0-2.41-1.2,2.83,2.83,0,0,0-2,.75,2.61,2.61,0,0,0-.82,2,2.83,2.83,0,0,0,.77,2A2.61,2.61,0,0,0,154.42,258.32Z"/><path class="cls-1" d="M172.54,258.86a5,5,0,0,1-6.84,0,4.8,4.8,0,0,1,0-6.74,5,5,0,0,1,6.84,0A4.8,4.8,0,0,1,172.54,258.86Zm-.7-3.36a3,3,0,0,0-.78-2.09,2.49,2.49,0,0,0-1.93-.86,2.46,2.46,0,0,0-1.93.86,3.15,3.15,0,0,0,0,4.17,2.51,2.51,0,0,0,1.93.86,2.54,2.54,0,0,0,1.93-.86,3,3,0,0,0,.78-2.08Z"/><path class="cls-1" d="M189.08,254.37l-2.48,5h-1.21l-2.46-5v5.75h-2.05V251h2.77l2.35,5,2.37-5h2.75v9.14h-2Z"/><path class="cls-1" d="M206.8,254.37l-2.48,5h-1.21l-2.47-5v5.75h-2V251h2.76l2.36,5,2.37-5h2.75v9.14h-2Z"/><path class="cls-1" d="M216.32,251h2v9.14h-2Z"/><path class="cls-1" d="M229.72,252.74v7.38h-2v-7.38h-2.59V251h7.22v1.76Z"/><path class="cls-1" d="M239.11,260a1,1,0,0,1-.46-.85,1.12,1.12,0,0,1,.35-.86,1.17,1.17,0,0,1,.85-.33,1.23,1.23,0,0,1,.86.32,1,1,0,0,1,.36.77,2.09,2.09,0,0,1-.38,1.05l-.79,1.35h-1.29Z"/><path class="cls-1" d="M259,252.8a.76.76,0,0,0-.3.64.73.73,0,0,0,.36.64,7,7,0,0,0,1.67.55,4.73,4.73,0,0,1,2,1,2.35,2.35,0,0,1,.72,1.87,2.5,2.5,0,0,1-.92,2,3.66,3.66,0,0,1-2.43.77,5.61,5.61,0,0,1-3.91-1.61l1.21-1.49a4.38,4.38,0,0,0,2.74,1.29,1.45,1.45,0,0,0,.88-.24.76.76,0,0,0,.32-.65.77.77,0,0,0-.34-.66,4.65,4.65,0,0,0-1.35-.49,5.84,5.84,0,0,1-2.33-1,2.3,2.3,0,0,1-.74-1.91,2.36,2.36,0,0,1,.93-2,3.82,3.82,0,0,1,2.34-.7,5.72,5.72,0,0,1,1.83.31,5.25,5.25,0,0,1,1.6.89l-1,1.49a4,4,0,0,0-2.46-.9A1.25,1.25,0,0,0,259,252.8Z"/><path class="cls-1" d="M272.85,257.76a1.8,1.8,0,0,0,2.54.21l.21-.21a2.73,2.73,0,0,0,.5-1.73v-5h2v5.11a4.1,4.1,0,0,1-1.1,3.06,4.23,4.23,0,0,1-5.63,0,4,4,0,0,1-1.11-3.05V251h2v5A2.68,2.68,0,0,0,272.85,257.76Z"/><path class="cls-1" d="M289.7,258.32a3,3,0,0,0,2.46-1.19l1.3,1.34a4.92,4.92,0,0,1-6.93.61l-.22-.19a4.85,4.85,0,0,1,0-6.76,4.68,4.68,0,0,1,3.41-1.36,4.84,4.84,0,0,1,3.77,1.71l-1.27,1.44a3,3,0,0,0-2.41-1.2,2.83,2.83,0,0,0-2,.75,2.65,2.65,0,0,0-.82,2,2.83,2.83,0,0,0,.77,2A2.57,2.57,0,0,0,289.7,258.32Z"/><path class="cls-1" d="M304.51,258.32a3,3,0,0,0,2.46-1.19l1.31,1.34a4.92,4.92,0,0,1-6.93.61l-.22-.19a4.83,4.83,0,0,1,0-6.76,4.68,4.68,0,0,1,3.41-1.36,4.84,4.84,0,0,1,3.77,1.71L307,253.92a3,3,0,0,0-2.41-1.2,2.83,2.83,0,0,0-2,.75,2.64,2.64,0,0,0-.81,2,2.75,2.75,0,0,0,.77,2A2.55,2.55,0,0,0,304.51,258.32Z"/><path class="cls-1" d="M321.72,251v1.81h-4.56v1.89h4.1v1.74h-4.1v1.9h4.7v1.8h-6.74V251Z"/><path class="cls-1" d="M335.51,251v1.81H331v1.89h4.09v1.74H331v1.9h4.7v1.8H329V251Z"/><path class="cls-1" d="M349.7,252.17a4.28,4.28,0,0,1,1.3,3.33,4.48,4.48,0,0,1-1.27,3.38,5.38,5.38,0,0,1-3.89,1.24h-3.13V251h3.23A5.42,5.42,0,0,1,349.7,252.17Zm-1.5,5.44a2.69,2.69,0,0,0,.75-2.05,2.76,2.76,0,0,0-.75-2.08,3.23,3.23,0,0,0-2.31-.72h-1.14v5.56h1.3A3,3,0,0,0,348.2,257.61Z"/><polygon class="cls-2" points="263.21 87.64 230.24 87.64 246.47 111.14 247.25 112.27 266.26 139.79 139.65 139.79 88.71 166.93 317.95 166.93 263.21 87.64"/><polygon class="cls-2" points="263.21 87.64 230.24 87.64 216.4 67.62 216.37 67.64 202.81 47.86 202.81 0.03 235.07 46.95 235.1 46.92 263.21 87.64"/><polygon class="cls-2" points="247.6 112.27 164.15 112.27 180.31 87.64 230.24 87.64 247.6 112.27"/><path class="cls-1" d="M165.31,37.16,190.94,0V47.8l-6.65,9.63C178.32,51.08,171.21,43.5,165.31,37.16Z"/><path class="cls-1" d="M157.85,47.75,82.94,156.54l52.11-27.76,12.14-17.64,16.16-23.5L176.84,68C170.86,61.67,163.76,54.1,157.85,47.75Z"/></g></g></svg>